<svg width="278" height="120" viewBox="0 0 278 120" fill="none" xmlns="http://www.w3.org/2000/svg">
<g clip-path="url(#clip0_1401_1060)">
<path d="M51.3487 119.556L46.0171 106.489H43.083V119.556H36.9495V87.4683H45.8382C53.2153 87.4683 56.7264 91.0227 56.7264 97.0669C56.7264 101.068 55.3041 103.956 51.8824 105.246L57.9266 119.556H51.3487ZM43.083 101.423H46.2392C48.9484 101.423 50.5928 100.09 50.5928 96.9775C50.5928 93.8646 48.9484 92.5344 46.2392 92.5344H43.083V101.423Z" fill="black"/>
<path d="M68.7605 119.556V87.4683H85.5574V92.8893H74.8914V100.266H83.0216V105.687H74.8914V114.129H86.0017V119.553L68.7605 119.556Z" fill="black"/>
<path d="M111.639 96.4003C110.617 93.3796 109.282 92.09 107.15 92.09C104.971 92.09 103.771 93.423 103.771 95.6011C103.771 100.445 117.458 100.8 117.458 110.846C117.458 116.353 113.679 120 107.236 120C102.259 120 98.3935 117.288 96.749 110.978L102.793 109.686C103.503 113.555 105.727 114.931 107.548 114.931C109.683 114.931 111.327 113.511 111.327 111.111C111.327 105.07 97.6403 104.978 97.6403 96.0021C97.6403 90.4916 100.929 87.0266 107.285 87.0266C112.752 87.0266 116.084 90.2722 117.152 94.8046L111.641 96.403L111.639 96.4003Z" fill="black"/>
<path d="M234.854 96.4003C233.833 93.3796 232.497 92.09 230.365 92.09C228.187 92.09 226.987 93.423 226.987 95.6011C226.987 100.445 240.674 100.8 240.674 110.846C240.674 116.353 236.894 120 230.452 120C225.475 120 221.609 117.288 219.965 110.978L226.009 109.686C226.719 113.555 228.943 114.931 230.764 114.931C232.898 114.931 234.543 113.511 234.543 111.111C234.543 105.07 220.856 104.978 220.856 96.0021C220.856 90.4916 224.145 87.0266 230.501 87.0266C235.968 87.0266 239.3 90.2722 240.368 94.8046L234.857 96.403L234.854 96.4003Z" fill="black"/>
<path d="M129.365 97.7793C129.365 89.8685 133.542 87.0239 139.497 87.0239C145.452 87.0239 149.629 89.8685 149.629 97.7793V109.242C149.629 117.153 145.452 120 139.497 120C133.542 120 129.365 117.153 129.365 109.242V97.7793ZM135.498 110.044C135.498 113.598 137.053 114.576 139.497 114.576C141.941 114.576 143.496 113.598 143.496 110.044V96.9774C143.496 93.423 141.941 92.4477 139.497 92.4477C137.053 92.4477 135.498 93.4257 135.498 96.9774V110.044Z" fill="black"/>
<path d="M176.109 119.556L170.777 106.489H167.843V119.556H161.709V87.4683H170.598C177.975 87.4683 181.486 91.0227 181.486 97.0669C181.486 101.068 180.064 103.956 176.642 105.246L182.687 119.556H176.109ZM167.843 101.423H170.999C173.708 101.423 175.353 100.09 175.353 96.9775C175.353 93.8646 173.708 92.5344 170.999 92.5344H167.843V101.423Z" fill="black"/>
<path d="M212.097 87.4709V92.892H204.943V119.556H198.809V92.892H191.654V87.4709H212.097Z" fill="black"/>
<path d="M0.00439453 2.67127C0.00439453 1.75015 0.741289 0.921143 1.75452 0.921143H23.2139C34.0831 0.921143 43.0179 8.3822 43.0179 18.0539C43.0179 25.1465 36.6622 30.3021 32.3329 32.6076C37.2149 34.6341 44.6759 39.1475 44.6759 47.6191C44.6759 57.9356 35.5568 65.3967 24.5982 65.3967H1.75452C0.741289 65.3967 0.00439453 64.5677 0.00439453 63.6466V2.67127ZM21.5558 27.0782C25.0561 27.0782 28.0037 24.1306 28.0037 20.4461C28.0037 16.7617 25.0561 14.1825 21.5558 14.1825H14.3711V27.0782H21.5558ZM22.7533 52.222C26.3457 52.222 29.3854 49.2744 29.3854 45.4978C29.3854 41.8134 25.4245 39.05 21.8322 39.05H14.3711V52.222H22.7533Z" fill="black"/>
<path d="M54.5347 2.67127C54.5347 1.75015 55.2716 0.921143 56.2848 0.921143H94.4137C95.4269 0.921143 96.1638 1.75015 96.1638 2.67127V12.7115C96.1638 13.6326 95.4269 14.4616 94.4137 14.4616H68.9014V25.8834H89.9002C90.8213 25.8834 91.6503 26.7124 91.6503 27.6336V37.6738C91.6503 38.687 90.8213 39.4239 89.9002 39.4239H68.9014V51.8563H94.4137C95.4269 51.8563 96.1638 52.6853 96.1638 53.6064V63.6466C96.1638 64.5677 95.4269 65.3967 94.4137 65.3967H56.2848C55.2716 65.3967 54.5347 64.5677 54.5347 63.6466V2.67127Z" fill="black"/>
<path d="M190.763 0C199.971 0 206.787 2.85547 213.051 8.5664C213.88 9.30329 213.88 10.4086 213.143 11.1455L205.961 18.6039C205.316 19.2487 204.303 19.2487 203.658 18.6039C200.25 15.5642 195.737 13.9089 191.226 13.9089C180.817 13.9089 173.172 22.5647 173.172 32.8812C173.172 43.1056 180.909 51.5772 191.315 51.5772C195.644 51.5772 200.342 50.0113 203.658 47.1558C204.303 46.6032 205.5 46.6032 206.053 47.2479L213.238 54.8932C213.883 55.538 213.791 56.7355 213.146 57.3802C206.882 63.4596 198.963 66.3124 190.765 66.3124C172.343 66.3124 157.516 51.6693 157.516 33.2469C157.516 14.8246 172.34 0 190.763 0Z" fill="black"/>
<path d="M222.36 2.67127C222.36 1.75015 223.189 0.921143 224.11 0.921143H235.068C236.082 0.921143 236.818 1.75015 236.818 2.67127V25.8807H263.16V2.67127C263.16 1.75015 263.897 0.921143 264.91 0.921143H275.868C276.79 0.921143 277.619 1.75015 277.619 2.67127V63.6439C277.619 64.565 276.79 65.394 275.868 65.394H264.91C263.897 65.394 263.16 64.565 263.16 63.6439V39.4212H236.818V63.6439C236.818 64.565 236.082 65.394 235.068 65.394H224.11C223.189 65.394 222.36 64.565 222.36 63.6439V2.67127Z" fill="black"/>
<path d="M147.242 63.6439C147.242 64.565 146.506 65.394 145.492 65.394H107.363C106.35 65.394 105.613 64.565 105.613 63.6439V53.6037C105.613 52.6826 106.35 51.8536 107.363 51.8536H132.876V39.4212H111.877C110.956 39.4212 110.127 38.6843 110.127 37.671V27.6309C110.127 26.7097 110.956 25.8807 111.877 25.8807H132.876V14.4589H107.363C106.35 14.4589 105.613 13.6299 105.613 12.7087V2.67127C105.613 1.75015 106.35 0.921143 107.363 0.921143H145.492C146.506 0.921143 147.242 1.75015 147.242 2.67127V63.6439Z" fill="black"/>
</g>
<defs>
<clipPath id="clip0_1401_1060">
<rect width="277.617" height="120" fill="white" transform="translate(0.00439453)"/>
</clipPath>
</defs>
</svg>
