<svg xmlns="http://www.w3.org/2000/svg" width="371.545" height="80" viewBox="0 0 371.545 80">
  <g id="logo" transform="translate(0.06)">
    <path id="Pfad_2202" data-name="Pfad 2202" d="M284.546,41.98C287.024,21.423,279.222,4.336,266.481,0h0l-.644,4.458h0c8.791,5.945,13.87,19.565,11.889,35.415a51.855,51.855,0,0,1-13.5,29.72l-.866-.372a12.482,12.482,0,0,0,.866-9.04L259.52,40.119a1.084,1.084,0,0,0-1.115-.992H245.651l-.62,4.707a18.512,18.512,0,0,0,3.1.866l8.791,33.929h8.791a55.9,55.9,0,0,0,18.822-36.656m37.522-1.735c.123-.992-.372-1.115-1.609-1.115H289.731l-.62,4.707a33.192,33.192,0,0,0,3.344.866l-4.581,32.692c-.123.866.123,1.237.62,1.237h26.625c1.115,0,1.735-.123,1.735-1.115l1.609-11.392h-4.83a52.934,52.934,0,0,0-2.352,6.565H299.517l1.609-10.775c3.593,0,9.411-.372,12.632-.743l.743-5.573H301.869l1.486-10.4h11.763a32.582,32.582,0,0,0,.494,6.067h4.83Zm43.838,1.237c.249-1.735.123-2.229-1.363-2.229h-8.917l-.62,4.581a20.482,20.482,0,0,0,3.964.866l-2.106,15.6a16.109,16.109,0,0,0,.249,7.8l-.743.494L343.72,40.856c-.372-.992-.866-1.486-1.609-1.486h-13.87l-.62,4.707c1.115.372,1.858.494,3.221.866l-4.581,32.2c-.123,1.237,0,1.735,1.115,1.735h5.079l2.85-20.557a11.7,11.7,0,0,0-.743-6.817l.866-.494,12.012,26.13c.62,1.237,1.115,1.735,2.352,1.735h10.526Zm44.953-1.237c.123-.992-.249-1.115-1.98-1.115H372.717l-1.98,14.364h5.822c.62-1.735,1.735-5.7,2.6-8.419H385.6l-4.581,32.32c-.123.743,0,1.115.743,1.115h13.634l.62-4.707a24.439,24.439,0,0,0-3.221-.866l3.838-27.988h6.316c0,2.727,0,6.439.123,8.419h5.822Zm42.352.249c.123-.992.123-1.363-.743-1.363H443.04l-.62,4.707c1.363.372,2.478.494,3.715.743L443.657,62.3c-1.115,7.431-3.593,11.64-8.917,11.64-5.454,0-6.937-3.344-5.822-11.64l2.972-21.174c.249-1.735.371-1.98-.62-1.98H417.179l-.62,4.707a26.363,26.363,0,0,0,3.344.866l-2.229,16.1c-1.858,13.127,1.363,19.071,14.862,19.071,10.526,0,16.1-6.193,17.725-17.725Zm36.929-1.231H485.17c-.743,1.98-1.115,3.467-1.609,5.079h-.743c-.494-3.715-3.221-6.439-9.66-6.439-7.182,0-14.49,3.964-14.49,12.755,0,8.545,9.288,11.889,14.49,14.241,1.735.866,3.593,1.98,3.593,4.09,0,3.221-2.85,4.953-6.562,4.953-5.079,0-6.565-3.344-4.581-7.3L460.035,63.9a8.774,8.774,0,0,0-4.707,7.3c0,3.964,3.467,8.791,13.5,8.791,8.791,0,18.948-4.09,18.948-14.118,0-7.925-8.668-9.905-13.87-12.878a5.73,5.73,0,0,1-3.466-4.707c0-3.1,2.352-4.581,5.573-4.581a5.962,5.962,0,0,1,5.931,7.073h5.324c.866,0,1.237-.62,1.363-1.363Z" transform="translate(-118.638)" fill="#008098"/>
    <path id="Pfad_2203" data-name="Pfad 2203" d="M25.481,86.451c0,6.193-3.1,11.02-8.419,11.02a16.965,16.965,0,0,1-3.715-.249L15.7,80.861a21.765,21.765,0,0,1,3.344-.249c3.838-.123,6.439,1.237,6.439,5.822m11.889-.743c0-8.181-7.182-10.908-16.47-10.908H1.951l-.62,4.731a26.366,26.366,0,0,0,3.344.866l-4.7,32.569c-.123.743.123,1.237.62,1.237H10.868l.866-5.822c.372-2.727.123-4.458-1.363-5.2l.494-.743a18.407,18.407,0,0,0,6.817.866c9.411,0,19.692-5.2,19.692-17.585m29.225,0c0,5.7-2.85,8.3-7.925,8.3-1.237,0-2.229,0-3.593-.123l1.868-13a14.53,14.53,0,0,1,3.593-.372c3.344,0,6.067,1.237,6.067,5.2m12.012-1.363c0-7.925-8.419-9.66-17.834-9.66h-17.6l-.62,4.707a26.367,26.367,0,0,0,3.344.866L41.331,112.95c-.123.866.123,1.237.62,1.237H52.228l2.107-14.735h2.614c3.593,0,4.581,2.352,5.079,6.316a59.393,59.393,0,0,0,.992,6.565c.123,1.237.494,1.858,2.478,1.858H77.261l.62-4.707-3.467-.866c-.249-5.324-2.352-11.146-8.917-11.518l.123-.866c5.7-.249,13-3.964,13-11.889m32.941,3.715c0,9.66-3.964,21.672-10.154,21.672-3.715,0-5.945-2.972-5.945-8.181,0-10.032,3.467-22.156,10.154-22.156,4.09,0,5.945,2.727,5.945,8.668m11.64,2.229a15.983,15.983,0,0,0-16.862-16.845c-15.107,0-22.538,9.411-22.538,24.767a16.593,16.593,0,0,0,16.842,17.336c12.632,0,22.538-7.925,22.538-25.261" transform="translate(0 -35.554)" fill="#8bc5bd"/>
  </g>
</svg>
