<svg xmlns="http://www.w3.org/2000/svg" id="Ebene_1" data-name="Ebene 1" viewBox="0 0 156 59.6"><defs><style>.cls-1{fill:url(#linear-gradient)}.cls-2,.cls-6{fill:none}.cls-3{clip-path:url(#clip-path)}.cls-4{fill:url(#linear-gradient-2)}.cls-5{fill:#66b8e8}.cls-6{stroke:#fff;stroke-miterlimit:10;stroke-width:1.51px}.cls-7{opacity:.47}.cls-8{clip-path:url(#clip-path-2)}.cls-9{mask:url(#mask)}.cls-10{fill:#fff}.cls-11{filter:url(#luminosity-noclip)}</style><linearGradient id="linear-gradient" x1="-209.62" x2="-208.62" y1="332.28" y2="332.28" gradientTransform="rotate(-90 -9147.35 2076.45) scale(34.02)" gradientUnits="userSpaceOnUse"><stop offset="0" stop-color="#fff"/><stop offset=".05" stop-color="#e2e2e2"/><stop offset=".15" stop-color="#aeaeae"/><stop offset=".26" stop-color="#7f7f7f"/><stop offset=".37" stop-color="#585858"/><stop offset=".48" stop-color="#383838"/><stop offset=".6" stop-color="#1f1f1f"/><stop offset=".72" stop-color="#0e0e0e"/><stop offset=".85" stop-color="#030303"/><stop offset="1"/></linearGradient><clipPath id="clip-path" transform="translate(-1.5)"><path d="M2.2 29.8c0 16 34.6 29 77.2 29s77.2-13 77.2-29S122.1.8 79.5.8s-77.2 13-77.2 29" class="cls-2"/></clipPath><linearGradient id="linear-gradient-2" x1="-213.06" x2="-212.06" y1="322.62" y2="322.62" gradientTransform="matrix(0 -60.22 -60.22 0 19507.6 -12771.7)" gradientUnits="userSpaceOnUse"><stop offset="0" stop-color="#264e90"/><stop offset=".29" stop-color="#264b8c"/><stop offset=".6" stop-color="#24447f"/><stop offset=".92" stop-color="#22386a"/><stop offset="1" stop-color="#213463"/></linearGradient><clipPath id="clip-path-2" transform="translate(-1.5)"><path d="M0 24.5h158v36.02H0z" class="cls-2"/></clipPath><filter id="luminosity-noclip" width="158.03" height="36.02" x="0" y="24.54" filterUnits="userSpaceOnUse" color-interpolation-filters="sRGB"><feFlood flood-color="#fff" result="bg"/><feBlend in="SourceGraphic" in2="bg"/></filter><mask id="mask" width="158.03" height="36.02" x="-1.49" y="24.54" maskUnits="userSpaceOnUse"><path d="M-1.5 24.5h158v36.02h-158z" class="cls-11 cls-1"/></mask></defs><g class="cls-3"><path d="M.8.8h154.5v58.05H.8z" class="cls-4"/><path d="M.9 33.8s8.5 8 33.9 10.4 52.1-4 78.3-3.1 32.7 3.3 32.7 3.3S111.3 63.3 64.1 59C10.7 54.2 1.2 37.4.9 33.8" class="cls-5"/></g><ellipse cx="78" cy="29.8" class="cls-6" rx="77.2" ry="29"/><path d="M77.2 25.2c32.8 0 78.2 0 78.2 5.6 0 17.2-45.7 28.7-78.5 28.7S.9 47.6.9 31.4c0-5.7 76.3-6.2 76.3-6.2z" class="cls-7 cls-8 cls-9 cls-8 cls-10"/><path d="M19.2 29.9l-.3 3.7h-1.5q.5-2.9.9-5.7t.8-5.7h1.3l.9 2 1 2 1 2 .9 1.9 2-3.9 1.9-4h1.4l.4 3.1.4 3.2.4 2.9q.2 1.4.3 2.2h-2.7q-.1-1.7-.3-3.7l-.4-3.9-1.9 3.8-1.8 3.8h-.6l-1.8-3.7-1.8-3.8q-.3 2-.5 3.8zm20.3 2.6a3.3 3.3 0 0 1-1 1 2.8 2.8 0 0 1-1.4.4 2.5 2.5 0 0 1-1.9-.7 3.3 3.3 0 0 1-.7-2.3v-5.2H37q-.1.9-.1 2.1t0 2.7a2.6 2.6 0 0 0 .4 1.5 1.3 1.3 0 0 0 2.1-.2 3.8 3.8 0 0 0 .1-1.8v-.7-1.9q0-.9-.1-1.8h2.5q-.1.9-.1 1.8t0 1.9v2.6l.1 1.7h-2.4v-1.1zm-3.8-10.2a1.1 1.1 0 1 1-.3.8 1 1 0 0 1 .3-.8zm3.5 0a1.1 1.1 0 1 1-.3.8 1 1 0 0 1 .3-.8zm8.8 5.4a4.2 4.2 0 0 1 1-1.7 2.1 2.1 0 0 1 1.5-.5h.3v2a2.2 2.2 0 0 0 0 .3h-.2l-.4-.2h-.5a1.5 1.5 0 0 0-1.2.5 1.7 1.7 0 0 0-.4 1.2v2.6l.1 1.7h-2.4q.1-.8.1-1.7t0-1.9v-.7-1.9q0-.9-.1-1.8h2.3v2zm6.6-6.1a1.3 1.3 0 1 1-.4.9 1.3 1.3 0 0 1 .4-.9zm-.2 5.8q0-.9-.1-1.8h2.5q-.1.9-.1 1.8t0 1.9v2.6l.1 1.7h-2.5q.1-.8.1-1.7t0-1.9v-2.6zM65 26.2a1.7 1.7 0 0 0 0 .4h-1.4v5.1a3.3 3.3 0 0 0 .1.8l.3.4h1.2v.7l-.8.3h-1q-2.1 0-2.1-2.5v-4.9h-1.1a1.7 1.7 0 0 0 0-.4 2.3 2.3 0 0 0 0-.4h1.2v-1.9l1.1-.5 1.1-.5h.2v3h1.5a2.3 2.3 0 0 0-.3.4zm5 3.6l2.2-3.2h-3.9a2.4 2.4 0 0 0 .1-.6 2.2 2.2 0 0 0-.1-.6h6.8v.7l-2.3 3.2-2.1 3.2H75a3.4 3.4 0 0 0 0 .6 2.4 2.4 0 0 0 0 .5h-7.2V33zM82.8 26v.6h-1.5V31l.1 2.7h-2.5q.1-1.3.1-2.7t0-3v-1.4h-1.1a1.7 1.7 0 0 0 0-.4 2.3 2.3 0 0 0 0-.4h1.2a16.2 16.2 0 0 1 .4-1.9 5.6 5.6 0 0 1 .7-1.5 3 3 0 0 1 1-1 3 3 0 0 1 1.5-.4h.7a4.5 4.5 0 0 0-.1.7v1.4h-.2l-.8-.3h-.8l-.7.2a.6.6 0 0 0-.3.6 2.9 2.9 0 0 0 .2 1l.6 1.2h1.6v.2zm3.4-4.4a1.3 1.3 0 1 1-.4.9 1.3 1.3 0 0 1 .4-.9zm-.2 5.8q0-.9-.1-1.8h2.5c-.1.6-.1 1.2-.1 1.8v4.5c0 .6.1 1.2.1 1.7h-2.5q.1-.8.1-1.7t0-1.9v-2.6zm6.8 4.7l.4.4.6.3h.7a1.3 1.3 0 0 0 .9-.3.9.9 0 0 0 .3-.6.8.8 0 0 0-.3-.6l-.6-.3-.9-.4-.9-.5a2.6 2.6 0 0 1-.7-.8 2.3 2.3 0 0 1-.3-1.2 2.6 2.6 0 0 1 .3-1.2 2.4 2.4 0 0 1 .7-.8l.9-.5 1-.2 1.2.2 1.1.6-.2.7v.7h-.7l-.2-.4-.3-.5-.5-.4h-.6a1.3 1.3 0 0 0-.8.3.8.8 0 0 0-.3.7.8.8 0 0 0 .3.6l.6.4.9.4.9.5a2.5 2.5 0 0 1 .7.8 2.2 2.2 0 0 1 .3 1.2 2.7 2.7 0 0 1-.3 1.3 2.5 2.5 0 0 1-.7.9l-1 .5h-1.1l-1.3-.2-.9-.4a8.8 8.8 0 0 0 .2-1.6h.4zm13.5-5.3a1.4 1.4 0 0 0-1.2-.5 1.6 1.6 0 0 0-1.5.9 5.3 5.3 0 0 0-.5 2.5 3.7 3.7 0 0 0 .6 2.3 2.2 2.2 0 0 0 1.8.8l1-.2.7-.5.2.2-.2.5-.2.5-.9.5-1.3.2a5.3 5.3 0 0 1-2-.3 3.5 3.5 0 0 1-1.3-.9 3.6 3.6 0 0 1-.7-1.4 5.5 5.5 0 0 1-.2-1.5 4.6 4.6 0 0 1 .3-1.7 3.8 3.8 0 0 1 .9-1.3 4.1 4.1 0 0 1 1.4-.9 4.9 4.9 0 0 1 1.8-.3l1.6.2 1.3.6-.4.8-.3.9h-.4a2.5 2.5 0 0 0-.5-1.4zm4.5-2.9q0-1.4-.1-2.8h2.5q-.1 1.4-.1 2.8t0 3a3.2 3.2 0 0 1 1.1-1.1 2.7 2.7 0 0 1 1.4-.4 2.5 2.5 0 0 1 1.9.7 3.4 3.4 0 0 1 .7 2.3v5.2h-2.5a19.5 19.5 0 0 0 .1-2v-2.7a2.6 2.6 0 0 0-.4-1.5 1.3 1.3 0 0 0-2.1.2 3.8 3.8 0 0 0-.3 1.8v3.3q0 .5.1.9h-2.5q.1-1.3.1-2.7t0-3v-1q.2-1.7.1-3zm13.4 7a3.1 3.1 0 0 0 .4 1 2 2 0 0 0 .7.7l1 .2a3.1 3.1 0 0 0 2-.7h.2l-.4.9-1 .5-1.5.2-1.5-.2a3.3 3.3 0 0 1-1.3-.7 3.6 3.6 0 0 1-.9-1.3 4.9 4.9 0 0 1-.3-1.9 5.5 5.5 0 0 1 .3-1.9 3.7 3.7 0 0 1 .8-1.3 3.3 3.3 0 0 1 1.2-.8l1.5-.3a3.2 3.2 0 0 1 2.5 1 3.9 3.9 0 0 1 .9 2.7v.5H124a5.5 5.5 0 0 0 .2 1.4zm2.1-4a1 1 0 0 0-.9-.7l-.6.2a1.8 1.8 0 0 0-.4.6 4.3 4.3 0 0 0-.2.9 8.5 8.5 0 0 0-.1 1h2.6a6.5 6.5 0 0 0-.4-2zm8.3.8a4.2 4.2 0 0 1 1-1.7 2.1 2.1 0 0 1 1.5-.5h.3v2a2.1 2.1 0 0 0 0 .3h-.2l-.4-.2h-.5a1.5 1.5 0 0 0-1.2.5 1.7 1.7 0 0 0-.4 1.2v2.6l.1 1.7h-2.5q.1-.8.1-1.7t0-1.9v-.7-1.9q0-.9-.1-1.8h2.3v2z" class="cls-10"/></svg>