<svg xmlns="http://www.w3.org/2000/svg" viewBox="0 0 142 39.08"><defs><style>.cls-1{fill:#127e5e;}.cls-2{fill:#2f8375;}.cls-3{fill:#017e5e;}</style></defs><title>logo</title><g id="Ebene_2" data-name="Ebene 2"><g id="logo"><path class="cls-1" d="M138.24,11.09a2.44,2.44,0,0,0-2.44,2.44v6.21a2.45,2.45,0,0,1-2.45,2.44H142V0h-8.65a2.45,2.45,0,0,1,2.45,2.44V8.65a2.44,2.44,0,0,0,2.44,2.44Z"/><path class="cls-2" d="M133.35,11.09a2.44,2.44,0,0,0-2.44,2.44v6.21a2.44,2.44,0,0,1-2.44,2.44h-8.65V0h8.65a2.44,2.44,0,0,1,2.44,2.44V8.65A2.44,2.44,0,0,0,133.35,11.09Z"/><path class="cls-3" d="M50.1,30.38a5.61,5.61,0,0,1-5.66,5.89H42.17V24.81h2.11a5.59,5.59,0,0,1,5.82,5.57m3.28.1a8.23,8.23,0,0,0-8-8.3H37.89a1.49,1.49,0,0,1,.79,1.45V38.94h6.17a8.41,8.41,0,0,0,8.53-8.46"/><rect class="cls-3" x="56.28" y="22.18" width="3.43" height="16.76"/><path class="cls-3" d="M76,25.21l1-1.08A8.71,8.71,0,0,0,71.34,22a8.53,8.53,0,1,0,0,17.06,8.84,8.84,0,0,0,5.75-2.22l-1.33-1.5h0l-.69-.78a5.17,5.17,0,0,1-3.69,1.47,5.47,5.47,0,0,1,0-10.94,5.27,5.27,0,0,1,3.5,1.36s1-1,1.15-1.26"/><path class="cls-3" d="M82.87,36.47V22.18h-4.2a1.57,1.57,0,0,1,.74,1.46v15.3h9.87L90,36.47Z"/><rect class="cls-3" x="91.85" y="22.18" width="3.4" height="16.76"/><path class="cls-3" d="M21.6,22.18H16.77L11.43,34,6.14,22.18H0a1.54,1.54,0,0,1,.73,1.44V38.94H4.17V26.23l5.89,12.71h1.65l5.67-12.71V38.94h3.48V23.64a1.55,1.55,0,0,1,.74-1.46M34.83,24.7l.73-2.52H24.39a1.57,1.57,0,0,1,.74,1.46v15.3H35.18L36,36.52H28.57v-5h5.5l.76-2.37H28.57V24.7Z"/><path class="cls-3" d="M115.76,22.18h-4.23V33.73l-8.27-11.55H98.19a1.57,1.57,0,0,1,.73,1.46v15.3h3.49V26.88L111,38.94h4V23.64a1.61,1.61,0,0,1,.82-1.46"/></g></g></svg>
